<svg version="1.1" xmlns="http://www.w3.org/2000/svg" style="display: block;" viewBox="0 0 2048 1529" width="2048" height="1529" preserveAspectRatio="none">
<defs>
	<linearGradient id="Gradient1" gradientUnits="userSpaceOnUse" x1="409.723" y1="720.725" x2="271.206" y2="812.829">
		<stop class="stop0" offset="0" stop-opacity="1" stop-color="rgb(253,218,22)"/>
		<stop class="stop1" offset="1" stop-opacity="1" stop-color="rgb(253,159,31)"/>
	</linearGradient>
	<linearGradient id="Gradient2" gradientUnits="userSpaceOnUse" x1="1630.61" y1="719.449" x2="1774.33" y2="814.636">
		<stop class="stop0" offset="0" stop-opacity="1" stop-color="rgb(252,220,21)"/>
		<stop class="stop1" offset="1" stop-opacity="1" stop-color="rgb(253,160,30)"/>
	</linearGradient>
	<linearGradient id="Gradient3" gradientUnits="userSpaceOnUse" x1="425.945" y1="709.661" x2="565.812" y2="788.329">
		<stop class="stop0" offset="0" stop-opacity="1" stop-color="rgb(252,213,23)"/>
		<stop class="stop1" offset="1" stop-opacity="1" stop-color="rgb(253,162,29)"/>
	</linearGradient>
</defs>

<path transform="translate(0,0)" fill="rgb(4,172,241)" d="M 1029.31 660.583 L 1107.08 660.504 L 1121.69 764.391 C 1123.86 779.853 1127.19 808.752 1130.73 823.218 L 1180.15 722.517 C 1188.9 704.595 1201.39 677.647 1210.97 660.672 L 1288.95 660.637 L 1235.37 972.271 C 1227.08 972.314 1173.24 973.191 1169.62 971.471 C 1168.78 968.106 1169.32 966.695 1169.91 963.17 C 1166.67 936.812 1182.06 893.816 1183.4 866.731 C 1183.91 856.503 1193.92 832.337 1190.49 823.645 C 1180.46 824.874 1172.16 866.616 1159.35 874.357 C 1155.89 879.556 1140.5 912.309 1136.84 919.752 C 1122.48 920.259 1106.01 919.838 1091.5 919.81 C 1085.85 887.726 1081.78 854.994 1076.79 822.786 C 1074.58 808.537 1072.46 793.772 1071.16 779.442 C 1068.5 790.624 1063.79 830.715 1062.96 842.649 C 1063.59 850.943 1065.56 889.789 1063.09 894.761 L 1061.36 894.715 C 1060.02 892.951 1059.83 893.255 1059.44 891.353 L 1059.22 892.352 C 1058.12 897.332 1057.2 903.246 1053.01 906.311 L 1041.56 972.212 C 1019.49 972.423 997.418 972.445 975.345 972.279 L 1011.18 764.913 C 1017.09 730.687 1022.52 694.426 1029.31 660.583 z"/>
<path transform="translate(0,0)" fill="rgb(238,251,247)" d="M 1205.19 779.176 C 1200.02 809.456 1191.42 840.675 1185.82 871.577 C 1182.16 892.162 1178.61 912.766 1175.17 933.388 C 1174.01 940.264 1171.63 956.943 1169.91 963.17 C 1166.67 936.812 1182.06 893.816 1183.4 866.731 C 1183.91 856.503 1193.92 832.337 1190.49 823.645 C 1180.46 824.874 1172.16 866.616 1159.35 874.357 C 1173.2 843.366 1190.31 810.021 1205.19 779.176 z"/>
<path transform="translate(0,0)" fill="rgb(238,251,247)" d="M 1053.01 906.311 C 1053.47 902.632 1054.33 898.308 1055.05 894.605 C 1058.4 877.403 1059.89 859.87 1062.96 842.649 C 1063.59 850.943 1065.56 889.789 1063.09 894.761 L 1061.36 894.715 C 1060.02 892.951 1059.83 893.255 1059.44 891.353 L 1059.22 892.352 C 1058.12 897.332 1057.2 903.246 1053.01 906.311 z"/>
<path transform="translate(0,0)" fill="rgb(4,172,241)" d="M 599.671 660.425 L 670.252 660.356 C 703.582 660.348 750.828 657.396 772.399 688.17 C 778.031 696.237 781.406 705.662 782.174 715.47 C 783.757 735.795 776.247 772.622 772.565 794.214 C 767.29 825.224 761.857 856.207 756.266 887.162 C 750.058 920.572 742.576 937.734 713.86 957.447 C 681.908 974.624 656.959 972.352 622.35 972.352 L 544.901 972.312 L 581.422 763.127 L 592.659 698.922 C 594.661 687.33 596.944 671.368 599.671 660.425 z"/>
<path transform="translate(0,0)" fill="rgb(254,254,254)" d="M 659.998 717.468 C 678.538 717.331 696.305 713.713 709.102 729.168 C 710.524 735.808 711.299 742.55 710.053 749.319 C 701.191 797.499 695.104 846.992 683.343 894.476 C 681.85 900.506 675.111 906.558 670.491 910.197 C 657.019 917.181 640.069 915.378 625.014 915.067 C 628.419 895.26 655.613 724.959 659.998 717.468 z"/>
<path transform="translate(0,0)" fill="rgb(4,172,241)" d="M 1401.5 657.341 C 1441.62 655.325 1501.07 659.062 1506.07 709.03 C 1509.4 742.291 1493.57 793.318 1489.86 827.975 C 1488.34 842.226 1484.4 857.936 1482.3 872.306 C 1480.52 884.533 1477.9 900.029 1474.43 911.705 C 1471.17 922.442 1465.98 932.496 1459.11 941.373 C 1441 965.188 1415.28 972.439 1387.05 976.186 C 1345.14 980.709 1286.87 973.973 1280.55 922.249 C 1279.79 915.695 1279.77 909.077 1280.48 902.517 C 1283.69 871.833 1291.28 836.749 1296.79 805.988 C 1310.46 729.696 1306.13 667.519 1401.5 657.341 z"/>
<path transform="translate(0,0)" fill="rgb(254,254,254)" d="M 1406 714.418 C 1412.45 714.264 1419.08 714.109 1425 717.098 C 1428.72 718.974 1432.71 722.788 1433.78 726.947 C 1435.04 731.854 1434.45 738.734 1433.87 743.746 C 1431.81 761.613 1409.37 896.713 1403.47 905.412 C 1397.82 913.736 1390.24 916.733 1380.74 918.458 C 1374.25 918.987 1366.54 918.689 1360.76 915.432 C 1357.08 913.361 1352.98 908.899 1352.13 904.634 C 1349.88 893.341 1374.61 754.465 1379.38 736.184 C 1380.37 732.4 1381.78 729.272 1384.1 726.12 C 1389.79 718.376 1396.93 715.846 1406 714.418 z"/>
<path transform="translate(0,0)" fill="rgb(117,221,77)" d="M 288.347 418.113 L 287.51 417.193 C 290.542 415.203 308.281 415.336 313.183 415.569 C 398.546 419.625 450.754 470.095 461.296 552.743 C 474.508 511.573 494.228 480.463 534.947 459.439 C 571.757 440.434 613.013 439.768 652.557 450.962 C 653.597 451.257 654.585 451.893 655.5 452.443 L 654.984 453.363 C 637.296 467.048 609.061 486.338 589.963 498.266 C 574.294 495.227 566.291 494.323 550.115 495.369 C 558.837 499.311 567.921 503.069 575.935 508.254 C 571.315 511.489 531.136 538.3 529.844 540.214 C 528.363 543.606 525.348 545.667 524.932 547.923 L 525.871 547.255 C 529.491 548.154 536.296 546.252 541.152 546.829 C 584.567 539.347 619.924 546.526 656.275 571.983 C 666.675 579.267 699.759 608.701 700.445 619.062 C 699.644 619.192 698.955 619.422 698.265 619.257 C 672.129 617.664 646.026 615.581 619.969 613.008 C 609.424 600.803 603.39 594.364 589.962 585.62 C 595.001 594.768 597.987 601.634 601.869 611.254 C 558.725 608.224 505.819 601.316 463.667 603.457 C 462.668 603.865 460.546 604.62 459.798 605.208 C 453.832 604.929 446.864 606.751 442.492 610.983 L 439.337 609.947 L 427.895 615.306 C 395.914 629.687 359.161 649.703 327.715 666.171 C 327.625 656.402 327.733 648.155 328.879 638.391 C 319.726 651.658 317.348 658.505 311.909 673.772 C 296.416 681.878 280.845 689.833 265.197 697.635 C 258.304 701.095 247.343 707.036 240.703 709.584 C 239.982 709.884 240.471 709.77 239.213 709.357 C 239.259 700.839 248.669 676.935 252.473 668.617 C 255.734 662.092 259.341 655.745 263.279 649.604 C 289.742 609.156 322.532 592.201 368.157 582.516 L 308.29 576.792 C 313.212 567.616 316.855 562.097 322.788 553.495 C 310.967 558.631 300.169 566.925 290.408 575.263 C 281.29 574.496 211.705 569.115 209.536 566.677 L 211.415 564.913 C 251.21 519.392 327.048 499.857 382.269 526.729 C 391.867 531.399 408.926 544.097 416.643 546.493 C 397.625 526.363 375.765 505.334 355.59 486.274 C 364.539 482.853 372.946 481.098 382.232 479.045 C 369.611 474.179 357.691 474.079 344.463 473.797 C 325.94 456.908 305.958 436.162 288.347 418.113 z"/>
<path transform="translate(0,0)" fill="rgb(4,172,241)" d="M 211.415 564.913 C 251.21 519.392 327.048 499.857 382.269 526.729 C 391.867 531.399 408.926 544.097 416.643 546.493 C 421.828 550.152 427.666 559.918 433.989 565.332 C 441.958 570.514 443.834 568.226 451.666 575.261 C 453.46 587.128 454.095 592.726 458.719 603.956 C 450.837 598.634 447.087 596.448 438.432 592.243 C 416.866 582.404 391.358 582.052 368.157 582.516 L 308.29 576.792 C 313.212 567.616 316.855 562.097 322.788 553.495 C 310.967 558.631 300.169 566.925 290.408 575.263 C 281.29 574.496 211.705 569.115 209.536 566.677 L 211.415 564.913 z"/>
<path transform="translate(0,0)" fill="rgb(6,214,201)" d="M 211.415 564.913 C 251.21 519.392 327.048 499.857 382.269 526.729 C 391.867 531.399 408.926 544.097 416.643 546.493 C 421.828 550.152 427.666 559.918 433.989 565.332 C 441.958 570.514 443.834 568.226 451.666 575.261 C 453.46 587.128 454.095 592.726 458.719 603.956 C 450.837 598.634 447.087 596.448 438.432 592.243 C 440.098 592.037 441.258 591.753 442.88 591.396 C 442.29 585.192 427.296 575.842 421.88 572.075 C 416.018 568.15 410.005 564.456 403.855 561.001 C 357.682 534.894 302.5 529.945 252.419 547.419 C 240.081 551.704 221.647 562.407 211.415 564.913 z"/>
<path transform="translate(0,0)" fill="rgb(3,181,147)" d="M 463.667 603.457 L 462.054 602.344 C 466.836 595.087 493.668 583.405 502.377 579.953 C 565.249 555.029 636.256 568.857 688.668 610.476 C 692.063 613.169 695.739 615.732 698.265 619.257 C 672.129 617.664 646.026 615.581 619.969 613.008 C 609.424 600.803 603.39 594.364 589.962 585.62 C 595.001 594.768 597.987 601.634 601.869 611.254 C 558.725 608.224 505.819 601.316 463.667 603.457 z"/>
<path transform="translate(0,0)" fill="rgb(3,181,147)" d="M 471.218 566.035 C 484.73 533.581 507.335 505.725 536.312 485.822 C 565.381 465.935 601.521 454.496 636.719 452.93 C 641.939 452.698 649.979 452.429 654.984 453.363 C 637.296 467.048 609.061 486.338 589.963 498.266 C 574.294 495.227 566.291 494.323 550.115 495.369 C 558.837 499.311 567.921 503.069 575.935 508.254 C 571.315 511.489 531.136 538.3 529.844 540.214 C 518.831 546.408 509.042 554.01 499.09 561.734 L 481.725 575.599 C 473.995 583.212 466.416 590.976 458.991 598.888 C 462.271 588.309 465.841 575.576 471.218 566.035 z"/>
<path transform="translate(0,0)" fill="rgb(3,181,147)" d="M 277.829 657.189 C 330.065 608.446 384.926 591.413 455.831 602.844 C 449.686 605.031 444.949 606.49 439.337 609.947 L 427.895 615.306 C 395.914 629.687 359.161 649.703 327.715 666.171 C 327.625 656.402 327.733 648.155 328.879 638.391 C 319.726 651.658 317.348 658.505 311.909 673.772 C 296.416 681.878 280.845 689.833 265.197 697.635 C 258.304 701.095 247.343 707.036 240.703 709.584 C 241.827 698.567 269.493 666.189 277.829 657.189 z"/>
<path transform="translate(0,0)" fill="rgb(3,181,147)" d="M 288.347 418.113 C 292.642 417.804 296.232 418.715 300.368 419.643 C 352.348 431.312 394.259 458.393 424.277 502.489 C 427.316 507.815 430.991 513.899 433.709 519.309 C 442.287 538.14 448.641 554.549 451.666 575.261 C 443.834 568.226 441.958 570.514 433.989 565.332 C 427.666 559.918 421.828 550.152 416.643 546.493 C 397.625 526.363 375.765 505.334 355.59 486.274 C 364.539 482.853 372.946 481.098 382.232 479.045 C 369.611 474.179 357.691 474.079 344.463 473.797 C 325.94 456.908 305.958 436.162 288.347 418.113 z"/>
<path transform="translate(0,0)" fill="rgb(238,251,247)" d="M 499.09 561.734 C 509.042 554.01 518.831 546.408 529.844 540.214 C 528.363 543.606 525.348 545.667 524.932 547.923 L 525.871 547.255 C 529.491 548.154 536.296 546.252 541.152 546.829 C 533.942 548.802 500.915 561.746 499.09 561.734 z"/>
<path transform="translate(0,0)" fill="rgb(117,221,77)" d="M 1587 551.928 C 1589.68 530.975 1592.83 515.577 1602.05 496.249 C 1628.68 440.385 1688.9 413.271 1748.54 415.726 C 1752.07 415.872 1757.4 415.515 1760.49 417.038 L 1759.98 418.267 C 1745.29 433.801 1719.62 459.946 1703.88 474.021 C 1688.15 473.909 1681.11 474.182 1665.48 478.522 C 1674.96 480.911 1682.82 482.989 1692.1 486.043 C 1676.46 501.637 1659.32 517.887 1644.18 533.678 L 1647.99 536.686 C 1682.23 515.331 1715.75 509.805 1755.87 518.027 C 1779.74 522.92 1821.44 544.553 1836.03 563.87 L 1838.31 565.639 L 1838.3 567.14 C 1832.85 569.338 1766.77 574.799 1757.7 574.966 C 1747.35 566.102 1737.59 558.707 1724.85 553.292 C 1730.19 560.732 1735.87 568.543 1739.78 576.842 C 1720.96 579.24 1699.95 580.758 1680.9 582.482 C 1751.59 598.599 1792.28 637.306 1809.54 708.041 L 1808.7 709.586 L 1807.74 709.68 C 1803.38 708.161 1791.73 702.115 1787.09 699.822 C 1770.03 691.39 1753.11 682.67 1736.34 673.666 C 1730.88 657.971 1728.14 652.066 1719.44 637.919 C 1720.25 648.259 1720.4 656.061 1720.34 666.454 C 1689.71 649.75 1651.81 630.037 1620.52 615.528 C 1616.83 613.535 1610.53 610.949 1606.52 609.161 L 1604.62 609.297 C 1600.03 607.193 1593.17 603.538 1588.27 604.984 L 1585.24 603.468 C 1540.35 601.42 1491.17 608.51 1446.02 611.153 C 1449.99 601.971 1453.28 594.347 1458 585.536 C 1444.96 594.433 1438.68 600.063 1428.98 612.815 C 1408.03 614.857 1370.42 618.817 1349.85 619.197 L 1347.92 619.676 L 1347.28 618.6 C 1349.19 614.225 1353.26 609.423 1356.31 605.604 C 1393.93 558.82 1453.63 531.982 1513.38 548.503 C 1522.35 550.981 1541.96 560.735 1548.57 561.652 C 1525.37 543.479 1496.59 525.65 1472.11 508.005 C 1479.92 503.381 1489.9 499.143 1498.25 495.307 C 1482.15 494.306 1473.64 495 1458.03 498.078 C 1435.9 483.91 1414.26 469.013 1393.12 453.411 L 1392.62 452.305 C 1393.53 451.688 1394.35 451.074 1395.42 450.758 C 1461.05 431.397 1534.04 450.843 1569.64 512.761 C 1577.54 526.499 1581.15 537.013 1587 551.928 z"/>
<path transform="translate(0,0)" fill="rgb(4,172,241)" d="M 1647.99 536.686 C 1682.23 515.331 1715.75 509.805 1755.87 518.027 C 1779.74 522.92 1821.44 544.553 1836.03 563.87 L 1838.31 565.639 L 1838.3 567.14 C 1832.85 569.338 1766.77 574.799 1757.7 574.966 C 1747.35 566.102 1737.59 558.707 1724.85 553.292 C 1730.19 560.732 1735.87 568.543 1739.78 576.842 C 1720.96 579.24 1699.95 580.758 1680.9 582.482 C 1653.21 582.225 1629.65 582.902 1603.77 594.698 C 1601.25 596.182 1597.73 598.107 1595.38 599.682 L 1593.62 599.713 L 1592.68 596.963 L 1593.27 596.351 C 1593.99 595.572 1594.24 595.465 1594.62 594.637 C 1600.21 582.591 1620.59 555.197 1630.48 547.613 C 1635.1 542.56 1639.25 538.435 1644.18 533.678 L 1647.99 536.686 z"/>
<path transform="translate(0,0)" fill="rgb(6,214,201)" d="M 1647.99 536.686 C 1682.23 515.331 1715.75 509.805 1755.87 518.027 C 1779.74 522.92 1821.44 544.553 1836.03 563.87 C 1828.78 562.504 1812.15 553.851 1804.31 550.647 C 1739.79 524.286 1669.7 537.283 1615.63 580.089 C 1612.15 582.843 1602.77 589.271 1601.52 593.435 L 1603.77 594.698 C 1601.25 596.182 1597.73 598.107 1595.38 599.682 L 1593.62 599.713 L 1592.68 596.963 L 1593.27 596.351 C 1593.99 595.572 1594.24 595.465 1594.62 594.637 C 1600.21 582.591 1620.59 555.197 1630.48 547.613 C 1635.1 542.56 1639.25 538.435 1644.18 533.678 L 1647.99 536.686 z"/>
<path transform="translate(0,0)" fill="rgb(188,251,246)" d="M 1644.18 533.678 L 1647.99 536.686 C 1644.71 538.987 1633.48 547.592 1630.48 547.613 C 1635.1 542.56 1639.25 538.435 1644.18 533.678 z"/>
<path transform="translate(0,0)" fill="rgb(3,181,147)" d="M 1349.85 619.197 C 1351.17 609.938 1396.21 587.184 1406.12 582.945 C 1462.21 558.958 1506.84 564.163 1561.91 586.612 C 1566.75 589.303 1584.25 597.899 1585.57 602.32 L 1585.24 603.468 C 1540.35 601.42 1491.17 608.51 1446.02 611.153 C 1449.99 601.971 1453.28 594.347 1458 585.536 C 1444.96 594.433 1438.68 600.063 1428.98 612.815 C 1408.03 614.857 1370.42 618.817 1349.85 619.197 z"/>
<path transform="translate(0,0)" fill="rgb(3,181,147)" d="M 1393.12 453.411 C 1408.39 450.839 1430.64 454.549 1445.78 457.633 C 1515.77 471.893 1570.93 527.83 1588.41 596.733 L 1588.11 596.958 C 1586.12 596.727 1573.48 582.554 1571.03 580.055 C 1566.11 575.425 1554.2 565.052 1548.57 561.652 C 1525.37 543.479 1496.59 525.65 1472.11 508.005 C 1479.92 503.381 1489.9 499.143 1498.25 495.307 C 1482.15 494.306 1473.64 495 1458.03 498.078 C 1435.9 483.91 1414.26 469.013 1393.12 453.411 z"/>
<path transform="translate(0,0)" fill="rgb(3,181,147)" d="M 1595.77 602.818 C 1627.43 591.539 1685.32 603.78 1715.81 618.29 C 1748.45 634.121 1776.19 658.502 1796.07 688.84 C 1800.01 694.759 1805.44 703.08 1807.74 709.68 C 1803.38 708.161 1791.73 702.115 1787.09 699.822 C 1770.03 691.39 1753.11 682.67 1736.34 673.666 C 1730.88 657.971 1728.14 652.066 1719.44 637.919 C 1720.25 648.259 1720.4 656.061 1720.34 666.454 C 1689.71 649.75 1651.81 630.037 1620.52 615.528 C 1616.83 613.535 1610.53 610.949 1606.52 609.161 C 1604.68 607.431 1598.61 605.013 1596.01 603.844 L 1595.77 602.818 z"/>
<path transform="translate(0,0)" fill="rgb(3,181,147)" d="M 1593.27 596.351 C 1602.38 535.391 1617.22 496.043 1667.92 455.522 C 1685.34 441.598 1740.38 415.52 1759.98 418.267 C 1745.29 433.801 1719.62 459.946 1703.88 474.021 C 1688.15 473.909 1681.11 474.182 1665.48 478.522 C 1674.96 480.911 1682.82 482.989 1692.1 486.043 C 1676.46 501.637 1659.32 517.887 1644.18 533.678 C 1639.25 538.435 1635.1 542.56 1630.48 547.613 C 1620.59 555.197 1600.21 582.591 1594.62 594.637 C 1594.24 595.465 1593.99 595.572 1593.27 596.351 z"/>
<path transform="translate(0,0)" fill="rgb(4,172,241)" d="M 832.474 660.504 L 997.876 660.505 C 995.446 678.505 991.244 699.58 988.079 717.703 L 887.667 717.598 C 883.892 740.416 879.961 763.208 875.874 785.972 L 963.575 786.004 C 961.112 803.71 956.696 824.144 953.682 842.242 L 866.479 842.306 C 862.691 858.847 859.401 882.243 856.641 899.247 C 855.61 904.014 855.009 909.787 854.384 914.708 L 956.561 914.697 C 955.192 928.464 949.164 957.404 946.668 972.361 C 890.294 973.328 830.606 972.418 773.973 972.329 C 778.05 945.86 783.458 918.29 788.085 891.783 L 812.946 748.162 C 817.305 723.163 821.718 698.172 825.725 673.116 C 826.623 667.496 826.575 661.583 832.474 660.504 z"/>
<path transform="translate(0,0)" fill="rgb(253,132,5)" d="M 539.474 1005.77 C 592.658 1005.13 647.022 1005.64 700.285 1005.65 L 984.162 1005.64 L 1459.67 1005.87 C 1458.71 1014.94 1455.41 1033.07 1453.48 1041.98 L 898.715 1041.99 C 777.198 1042 653.892 1043.11 532.495 1041.84 C 534.599 1030.06 536.64 1017.31 539.474 1005.77 z"/>
<path transform="translate(0,0)" fill="url(#Gradient3)" d="M 472.408 620.138 C 492.874 618.992 533.339 622.695 554.361 625.118 C 563.639 625.038 600.06 628.758 609.236 630.744 C 598.149 632.539 586.282 631.825 574.915 631.899 C 573.796 638.121 572.802 644.365 571.934 650.627 C 572.53 655.889 572.67 662.607 572.506 667.923 C 572.304 674.445 575.632 690.071 571.834 694.871 C 559.241 696.888 571.382 705.257 560.823 712.367 C 557.083 726.997 551.565 763.465 548.88 779.676 C 545.55 799.781 537.493 836.418 535.779 855.106 C 531.096 858.79 519.204 865.375 516.161 868.375 C 509.11 887.087 475.629 890.619 458.923 889.097 L 448.8 890.27 C 432.625 816.19 429.844 758.921 449.255 684.188 C 454.703 663.212 462.315 639.356 472.408 620.138 z"/>
<path transform="translate(0,0)" fill="rgb(238,251,247)" d="M 570.81 650.927 L 571.934 650.627 C 572.53 655.889 572.67 662.607 572.506 667.923 C 572.304 674.445 575.632 690.071 571.834 694.871 C 559.241 696.888 571.382 705.257 560.823 712.367 C 562.862 693.435 568.257 671.145 570.81 650.927 z"/>
<path transform="translate(0,0)" fill="rgb(238,251,247)" d="M 516.161 868.375 C 509.11 887.087 475.629 890.619 458.923 889.097 C 485.033 882.319 491.422 880.731 516.161 868.375 z"/>
<path transform="translate(0,0)" fill="rgb(247,165,39)" d="M 554.361 625.118 C 563.639 625.038 600.06 628.758 609.236 630.744 C 598.149 632.539 586.282 631.825 574.915 631.899 C 573.796 638.121 572.802 644.365 571.934 650.627 L 570.81 650.927 C 570.438 648.266 572.32 634.087 572.282 628.479 C 567.888 627.643 556.883 627.704 554.361 625.118 z"/>
<path transform="translate(0,0)" fill="rgb(239,97,4)" d="M 442.492 610.983 C 446.864 606.751 453.832 604.929 459.798 605.208 C 450.713 625.307 440.904 646.933 434.85 668.162 C 408.338 761.131 414.058 856.772 448.047 946.624 C 460.785 980.008 476.876 1012.02 496.073 1042.15 L 446.15 1042.03 L 397.495 1042.07 C 387.74 1012.34 380.558 986.936 374.764 955.999 C 356.776 861.031 365.564 762.932 400.146 672.674 C 406.547 656.136 417.991 629.777 427.895 615.306 L 439.337 609.947 L 442.492 610.983 z"/>
<path transform="translate(0,0)" fill="rgb(253,132,5)" d="M 442.492 610.983 C 446.864 606.751 453.832 604.929 459.798 605.208 C 450.713 625.307 440.904 646.933 434.85 668.162 C 408.338 761.131 414.058 856.772 448.047 946.624 C 460.785 980.008 476.876 1012.02 496.073 1042.15 L 446.15 1042.03 C 450.228 1038.29 444.486 1030.37 442.41 1026.3 C 375.479 895.27 378.087 743.265 442.342 611.918 C 442.392 611.606 442.442 611.295 442.492 610.983 z"/>
<path transform="translate(0,0)" fill="rgb(239,97,4)" d="M 1588.27 604.984 C 1593.17 603.538 1600.03 607.193 1604.62 609.297 L 1606.52 609.161 C 1610.53 610.949 1616.83 613.535 1620.52 615.528 C 1634.38 637.259 1647.68 669.642 1655.72 694.164 C 1685.55 784.113 1690.48 880.459 1669.99 972.984 C 1665.08 995.194 1658.3 1020.55 1650.63 1041.96 C 1636.17 1042.02 1620.71 1042.35 1606.33 1041.9 C 1589.97 1042.6 1569.12 1042.03 1552.42 1042.03 C 1572.08 1009.32 1587.27 981.007 1600.78 945 C 1633.77 857.071 1639.87 762.708 1614.34 672.088 C 1607.8 648.843 1598.38 626.848 1588.27 604.984 z"/>
<path transform="translate(0,0)" fill="rgb(253,132,5)" d="M 1588.27 604.984 C 1593.17 603.538 1600.03 607.193 1604.62 609.297 C 1606.15 617.228 1616.68 636.595 1620.26 645.214 C 1666.18 755.812 1666.64 878.746 1622.42 989.96 C 1615.72 1006.85 1605.67 1023.91 1599.61 1040.5 L 1606.33 1041.9 C 1589.97 1042.6 1569.12 1042.03 1552.42 1042.03 C 1572.08 1009.32 1587.27 981.007 1600.78 945 C 1633.77 857.071 1639.87 762.708 1614.34 672.088 C 1607.8 648.843 1598.38 626.848 1588.27 604.984 z"/>
<path transform="translate(0,0)" fill="rgb(252,188,25)" d="M 1523.33 622.116 C 1540.77 620.731 1558.25 619.963 1575.74 619.814 C 1617.26 705.276 1620.19 798.992 1599.42 890.202 C 1572.53 886.818 1533.87 874.184 1514.01 855.919 C 1518.99 828.569 1523.8 801.187 1528.44 773.776 C 1537.8 719.073 1545.93 676.849 1491.34 642.656 C 1472.3 634.303 1463.54 632.89 1443.15 630.07 C 1464.74 626.103 1501.04 623.979 1523.33 622.116 z"/>
<path transform="translate(0,0)" fill="rgb(247,165,39)" d="M 1443.15 630.07 C 1464.74 626.103 1501.04 623.979 1523.33 622.116 C 1511.4 629.283 1486.64 625.969 1476.81 630.667 L 1477.44 631.941 C 1481.32 633.183 1486.62 632.211 1490.88 631.809 L 1490.87 632.397 L 1485.28 635.549 C 1487.88 638.026 1489.74 639.423 1491.34 642.656 C 1472.3 634.303 1463.54 632.89 1443.15 630.07 z"/>
<path transform="translate(0,0)" fill="url(#Gradient2)" d="M 1659.99 654.706 C 1711.98 679.818 1764 708.547 1816.49 733.695 C 1807.52 778.142 1786.56 811.74 1754.18 842.58 C 1745.94 849.552 1732.89 860.295 1723.36 864.885 C 1718.12 868.784 1706.01 874.342 1699.8 877.355 C 1700.32 790.493 1691.08 735.871 1659.99 654.706 z"/>
<path transform="translate(0,0)" fill="rgb(247,165,39)" d="M 1723.36 864.885 C 1723.47 861.599 1723.16 859.78 1723.23 857.236 C 1738.73 852.32 1730.02 841.968 1754.18 842.58 C 1745.94 849.552 1732.89 860.295 1723.36 864.885 z"/>
<path transform="translate(0,0)" fill="url(#Gradient1)" d="M 353.804 672.323 C 365.249 666.313 376.71 660.126 388.497 654.836 C 384.178 665.454 379.541 676.427 375.766 687.206 C 371.893 700.77 368.066 712.132 364.461 726.313 C 351.075 778.978 348.178 822.927 348.237 876.79 C 286.51 850.632 246.127 798.865 232.334 733.803 C 259.782 718.971 288.887 705.702 316.559 691.113 C 328.591 684.769 341.497 678.041 353.804 672.323 z"/>
<path transform="translate(0,0)" fill="rgb(252,188,25)" d="M 353.804 672.323 C 365.249 666.313 376.71 660.126 388.497 654.836 C 384.178 665.454 379.541 676.427 375.766 687.206 L 373.174 685.598 C 372.575 678.473 378.128 672.413 373.345 666.856 C 370.902 667.072 363.816 672.3 360.194 674.275 C 357.195 674.619 356.379 673.82 353.804 672.323 z"/>
<path transform="translate(0,0)" fill="rgb(247,165,39)" d="M 262.223 589.925 C 273.159 590.797 283.585 591.595 294.456 593.058 C 273.979 609.44 267.188 615.47 251.573 635.869 C 244.559 648.966 239.418 653.948 231.564 670.985 C 233.165 656.264 236.736 641.824 242.181 628.053 C 246.652 615.529 254.522 600.751 262.223 589.925 z"/>
<path transform="translate(0,0)" fill="rgb(247,165,39)" d="M 1754.42 593.066 C 1765.09 591.265 1774.84 590.749 1785.63 590.029 C 1793.9 600.053 1801.76 616.275 1806.35 628.411 C 1812.06 644.523 1813.9 653.695 1816.84 670.663 C 1808.9 655.503 1803.77 646.224 1794 632.343 C 1779.8 613.955 1772.29 608.106 1754.42 593.066 z"/>
</svg>